<?xml version="1.0" encoding="UTF-8"?>
<svg id="Layer_1" data-name="Layer 1" xmlns="http://www.w3.org/2000/svg" viewBox="0 0 32 20.8">
  <defs>
    <style>
      .cls-1 {
        fill: #0071ce;
      }

      .cls-2 {
        fill: #fff;
      }
    </style>
  </defs>
  <rect class="cls-2" x="14.2525" y="3.1598" width="15.0249" height="14.6039"/>
  <g>
    <path class="cls-1" d="M27.057,17.0387l-1.1782-1.3141-1.2235,1.3141h-7.5677v-6.1176h-2.4017l2.9908-6.8426h2.9002l1.0423,2.3564v-2.3564h3.6252l.6344,1.7673,.6344-1.7673h2.7642v-1.0423c0-.6344-.4985-1.1329-1.1329-1.1329H3.8555c-.6344,0-1.1329,.4985-1.1329,1.1329v14.7275c0,.6344,.4985,1.1329,1.1329,1.1329H28.1445c.6344,0,1.1329-.4985,1.1329-1.1329v-.725h-2.2205Z"/>
    <g>
      <polygon class="cls-1" points="27.3742 16.3137 29.2774 16.3137 26.7851 13.64 29.2774 11.0118 27.4195 11.0118 25.8334 12.7337 24.2927 11.0118 22.3895 11.0118 24.9271 13.6854 22.3895 16.3137 24.2474 16.3137 25.8334 14.5917 27.3742 16.3137"/>
      <polygon class="cls-1" points="19.3533 15.0901 19.3533 14.2745 22.3442 14.2745 22.3442 13.051 19.3533 13.051 19.3533 12.2353 22.3895 12.2353 22.3895 11.0118 17.9032 11.0118 17.9032 16.3137 22.3895 16.3137 22.3895 15.0901 19.3533 15.0901"/>
      <polygon class="cls-1" points="27.8726 10.2414 29.2321 10.2414 29.2321 4.8942 27.057 4.9395 25.8787 8.2475 24.6552 4.9395 22.3895 4.9395 22.3895 10.2414 23.8396 10.2414 23.8396 6.5255 25.199 10.2414 26.4678 10.2414 27.8726 6.5255 27.8726 10.2414"/>
      <path class="cls-1" d="M20.0784,4.9395h-1.8579l-2.3564,5.3019h1.586l.4532-1.0423h2.447l.4532,1.0423h1.6314l-2.3564-5.3019Zm-1.6767,3.0361l.725-1.722,.725,1.722h-1.4501Z"/>
    </g>
  </g>
  <polygon class="cls-1" points="27.9633 13.5041 29.2774 14.9542 29.2774 12.054 27.9633 13.5041"/>
</svg>